<svg id="Calque_1" data-name="Calque 1" xmlns="http://www.w3.org/2000/svg" viewBox="0 0 726.36 372.05"><defs><style>.cls-1{fill:#fff;}.cls-2{fill:#ff7e67;}.cls-3{fill:#a2d4f2;}.cls-4{fill:#07698f;}</style></defs><title>logo-color</title><rect class="cls-1" x="61.18" y="53.03" width="110" height="136"/><rect class="cls-1" x="306.18" y="36.03" width="117" height="141"/><rect class="cls-1" x="535.18" y="45.03" width="149.5" height="149.5"/><path class="cls-2" d="M138.94,126.36q-6.81-3.84-18.86-1.71l-23.41,4.13,6.67,37.81,23.49-4.14a36.26,36.26,0,0,0,10.54-3.34,20.45,20.45,0,0,0,6.71-5.36,16,16,0,0,0,3.19-7,22.51,22.51,0,0,0,0-8.16Q145.74,130.2,138.94,126.36Z"/><path class="cls-2" d="M233.83,197.07,201.37,13a8.72,8.72,0,0,0-10.1-7.08L7.2,38.39A8.73,8.73,0,0,0,.13,48.5L32.59,232.55a8.71,8.71,0,0,0,10.1,7.08l184.08-32.46A8.73,8.73,0,0,0,233.83,197.07Zm-72.38-47.61a27.37,27.37,0,0,1-5.7,11.08A35.17,35.17,0,0,1,144.89,169a54.56,54.56,0,0,1-15.78,5.09l-38.42,6.77L71.54,72.27l34.63-6.11a67.27,67.27,0,0,1,17.58-1.07,33.92,33.92,0,0,1,12.88,3.51,22.45,22.45,0,0,1,8.46,7.69,30.55,30.55,0,0,1,4.33,11.46,24.4,24.4,0,0,1,.11,7.95,22.89,22.89,0,0,1-2.57,7.56,27.23,27.23,0,0,1-5.36,6.8,36,36,0,0,1-8.26,5.68q12.31.25,19.47,5.39t8.95,15.3A31,31,0,0,1,161.45,149.46Z"/><path class="cls-2" d="M124.74,111.64a22.09,22.09,0,0,0,6.87-5.12,15,15,0,0,0,3.4-6.65,19.68,19.68,0,0,0,.11-7.79q-1.68-9.55-8.23-13t-18.67-1.32L88.29,81.27l6.53,37.05,19.4-3.42A38.25,38.25,0,0,0,124.74,111.64Z"/><path class="cls-3" d="M374.82,66.7q-1.12,3.07-2.15,5.64t-2,4.5l-21.15,43.1,41,3.59L377.21,77.34A83.53,83.53,0,0,1,374.82,66.7Z"/><path class="cls-3" d="M473.2,16.33,287,0A8.72,8.72,0,0,0,277.55,8L261.26,194.15a8.74,8.74,0,0,0,7.92,9.45l186.2,16.29c.26,0,.52,0,.77,0a8.74,8.74,0,0,0,8.68-8L481.12,25.78A8.73,8.73,0,0,0,473.2,16.33ZM406.45,166a5,5,0,0,1-3.13-1.28A6.15,6.15,0,0,1,401.7,162l-8-27.42-49.28-4.31-12.59,25.62a6,6,0,0,1-2.05,2.29,4.9,4.9,0,0,1-3.31.79L315,158,368.54,52l15.1,1.32L417.95,167Z"/><path class="cls-2" d="M719.16,38.39,535.09,5.94A8.73,8.73,0,0,0,525,13L492.53,197.07a8.74,8.74,0,0,0,7.07,10.1l184.08,32.46a8.71,8.71,0,0,0,10.09-7.08L726.23,48.5A8.73,8.73,0,0,0,719.16,38.39Zm-62.05,146-12.88-2.27,14.07-79.79q.28-1.59.68-3.4t.88-3.67L610.68,156.6a5.94,5.94,0,0,1-5.91,2.48l-2.12-.37a5.93,5.93,0,0,1-4.7-4.34l-26-74.82q-.12,2-.34,3.92t-.5,3.51L557,166.74l-12.88-2.27L563.28,55.89l10.83,1.91a9.59,9.59,0,0,1,3,.91,4.44,4.44,0,0,1,1.67,2.48l25.72,73.44a28.91,28.91,0,0,1,1.18,4.15q.44,2.15.84,4.33,1.13-2,2.3-3.77t2.58-3.57L659.9,75.51a4.43,4.43,0,0,1,2.42-1.76,9.58,9.58,0,0,1,3.1.16l10.83,1.91Z"/><path class="cls-4" d="M390.56,296.54a38.76,38.76,0,0,0-13.41-9.09,47.78,47.78,0,0,0-34.59,0,38.84,38.84,0,0,0-13.38,9.09,40.94,40.94,0,0,0-8.64,13.92,52.89,52.89,0,0,0,0,35.46,40.6,40.6,0,0,0,8.64,13.89,38.68,38.68,0,0,0,13.38,9,48.2,48.2,0,0,0,34.59,0,38.6,38.6,0,0,0,13.41-9,40.57,40.57,0,0,0,8.64-13.89,52.89,52.89,0,0,0,0-35.46A40.92,40.92,0,0,0,390.56,296.54Zm-2.4,45.84A30.12,30.12,0,0,1,382,353a26.21,26.21,0,0,1-9.6,6.66,35.35,35.35,0,0,1-25.14,0,26.5,26.5,0,0,1-9.63-6.66,29.87,29.87,0,0,1-6.15-10.62,47.81,47.81,0,0,1,0-28.41,29.84,29.84,0,0,1,6.15-10.65,26.85,26.85,0,0,1,9.63-6.69,34.92,34.92,0,0,1,25.14,0,26.55,26.55,0,0,1,9.6,6.69A30.09,30.09,0,0,1,388.16,314a47.79,47.79,0,0,1,0,28.41Z"/><path class="cls-4" d="M518.3,369.06l-8.9-12.87-19.59-29.66,27.49-39.78s.36-.14.14-.63-.84-.1-.84-.1h-9.39c-.6,0-1.11-.17-1.53.17a4.66,4.66,0,0,0-1.17,1.18l-21.18,31.35c0,.06-.06.07-.09.13l-1.44,2.82-.2.34h0l-14.79-23,0-.37-7.45-11.39a4,4,0,0,0-1.17-1c-.42-.34-.93-.25-1.53-.25h-9.39s-.69-.24-.84.1a1.83,1.83,0,0,0,.14,1.24L473,327h0l.48.32-20.7,31.42-.32.37-6.93,10a3.77,3.77,0,0,0-.14,1.72,9.72,9.72,0,0,0,.84,1.19h9.39c.6,0,1.11-.95,1.53-1.29a8.46,8.46,0,0,0,1.17-1.74l2.69-4.12,18.08-27.55,2.56-3.85,20.88,30.92,3,4.39a10.52,10.52,0,0,0,1.17,2c.42.34.93,1.29,1.53,1.29h9.39a10.51,10.51,0,0,0,.84-1.22A3.89,3.89,0,0,0,518.3,369.06Z"/><path class="cls-4" d="M249.1,327.16a28.07,28.07,0,0,0,7.11-3.24,21.25,21.25,0,0,0,5-4.5,17.84,17.84,0,0,0,3-5.46,19,19,0,0,0,1-6.12,23.82,23.82,0,0,0-1.77-9.39A17.52,17.52,0,0,0,258,291.4c-2.46-1.92-5.6-3.09-9.42-4.13S240.22,286,234.94,286H213.07s-2.94-.34-4.6,1.19a13.17,13.17,0,0,0-2.29,2.93v75.62a18.61,18.61,0,0,0,2.72,4.33c1.3,1.42,4.53,1.93,4.53,1.93h24.5a42.21,42.21,0,0,0,12.81-2.09,27.67,27.67,0,0,0,9.48-5.17,21.62,21.62,0,0,0,5.88-7.82,24.35,24.35,0,0,0,2-10q0-8-4.8-13C260.11,330.69,255.38,328.41,249.1,327.16ZM218.18,295h16.75c6.4,0,11.12,1,14.16,3.32s4.56,5.95,4.56,11a15.07,15.07,0,0,1-1.14,5.91,11.64,11.64,0,0,1-3.51,4.62,18,18,0,0,1-6,3.54,28.82,28.82,0,0,1-8.52,1.62H218.18Zm37.39,57.85a12.44,12.44,0,0,1-3.39,4.92,16.62,16.62,0,0,1-5.88,3.65,27.5,27.5,0,0,1-8.55,1.58H218.18V333H237.7c6.36,0,11.11.88,14.25,3.46a12.5,12.5,0,0,1,4.71,10.32A16.44,16.44,0,0,1,255.58,352.87Z"/></svg>